<?xml version="1.0" standalone="no"?>
<!DOCTYPE svg PUBLIC "-//W3C//DTD SVG 20010904//EN"
 "http://www.w3.org/TR/2001/REC-SVG-20010904/DTD/svg10.dtd">
<svg version="1.0" xmlns="http://www.w3.org/2000/svg"
 width="800.000000pt" height="800.000000pt" viewBox="0 0 800.000000 800.000000"
 preserveAspectRatio="xMidYMid meet">
<metadata>
Created by potrace 1.14, written by Peter Selinger 2001-2017
</metadata>
<g transform="translate(0.000000,800.000000) scale(0.100000,-0.100000)"
fill="#000000" stroke="none">
<path d="M2140 6522 c-320 -327 -505 -811 -551 -1445 -6 -87 -9 -161 -6 -164
3 -3 39 22 79 54 62 51 103 79 234 160 69 43 237 110 354 142 78 21 352 70
500 91 47 6 114 15 150 21 435 62 971 105 1210 95 475 -20 1347 -131 1646
-210 121 -32 274 -93 349 -139 93 -58 191 -121 195 -126 16 -20 112 -93 116
-88 8 8 -14 303 -32 422 -59 405 -187 750 -376 1012 -65 91 -199 238 -232 255
-12 6 1 -11 27 -38 86 -86 250 -355 321 -524 102 -246 194 -624 219 -903 7
-69 11 -69 -100 6 -97 66 -293 163 -383 189 -87 25 -266 66 -365 84 -387 70
-597 100 -1025 145 -265 29 -646 31 -895 6 -571 -58 -1184 -158 -1442 -237
-95 -29 -285 -125 -390 -196 l-94 -65 7 68 c32 360 152 789 297 1063 72 137
170 284 234 352 31 32 52 58 48 58 -5 0 -47 -40 -95 -88z"/>
<path d="M3760 5219 c-581 -27 -1333 -126 -1629 -215 -60 -18 -203 -74 -241
-96 -143 -79 -286 -204 -399 -348 -28 -36 -58 -74 -67 -85 -92 -114 -173 -303
-214 -500 -46 -218 -70 -564 -53 -758 5 -53 5 -101 0 -106 -15 -15 34 -122 74
-162 103 -103 312 -159 592 -159 76 0 137 -4 137 -9 0 -5 2 -16 5 -23 4 -9 -4
-19 -20 -26 -31 -14 -55 -66 -55 -118 0 -48 30 -162 85 -324 64 -185 106 -273
145 -301 22 -17 47 -55 79 -124 190 -402 526 -743 906 -921 280 -131 539 -184
895 -184 356 0 615 53 895 184 380 178 716 519 906 921 32 69 57 107 79 124
21 15 45 51 68 100 52 114 152 424 159 494 7 75 -13 131 -52 149 -16 7 -24 17
-20 26 3 7 5 18 5 23 0 5 61 9 138 9 279 0 488 56 591 159 40 40 89 147 74
162 -5 5 -5 53 0 106 19 222 -9 582 -65 808 -44 182 -132 377 -200 445 -8 8
-19 22 -24 31 -54 96 -238 274 -376 366 -200 133 -547 217 -1218 292 -327 37
-871 75 -1000 69 -19 0 -109 -5 -200 -9z m480 -199 c406 -16 722 -51 1030
-116 153 -32 407 -97 416 -107 14 -14 70 -503 96 -837 14 -188 17 -866 4
-1043 -8 -118 -8 -118 -47 -163 -26 -30 -45 -67 -59 -112 -28 -95 -68 -342
-76 -469 l-7 -108 -66 -63 c-216 -208 -412 -347 -656 -468 -561 -276 -1189
-276 -1750 0 -244 121 -434 256 -657 468 -66 62 -68 66 -68 114 0 116 -56 470
-87 553 -10 25 -34 64 -54 87 -37 42 -37 44 -45 161 -13 177 -10 855 4 1043
26 332 81 823 95 836 7 7 164 51 287 80 340 80 716 128 1125 143 110 4 211 9
225 9 14 1 144 -3 290 -8z"/>
</g>
</svg>
